<?xml version="1.0" encoding="UTF-8" standalone="no"?>
<!DOCTYPE svg PUBLIC "-//W3C//DTD SVG 1.1//EN" "http://www.w3.org/Graphics/SVG/1.1/DTD/svg11.dtd">
<svg width="100%" height="100%" viewBox="0 0 119 92" version="1.1" xmlns="http://www.w3.org/2000/svg" xmlns:xlink="http://www.w3.org/1999/xlink" xml:space="preserve" xmlns:serif="http://www.serif.com/" style="fill-rule:evenodd;clip-rule:evenodd;stroke-linecap:round;stroke-linejoin:round;stroke-miterlimit:1.5;">
    <g transform="matrix(1,0,0,1,-523.006,-1005.69)">
        <g transform="matrix(0.4885,0,0,0.4885,-209.297,514.154)">
            <circle cx="1617.58" cy="1166.12" r="17.9" style="stroke:black;stroke-width:17.91px;"/>
        </g>
        <g transform="matrix(1,0,0,1,-1075.75,-97.7957)">
            <path d="M1623.08,1153.77C1630.75,1144.1 1642.6,1137.9 1655.89,1137.9C1669.71,1137.9 1681.98,1144.61 1689.6,1154.95" style="fill:none;stroke:black;stroke-width:8.75px;"/>
        </g>
        <g transform="matrix(1,0,0,1,-1075.75,-97.7957)">
            <path d="M1634.55,1165.52C1639.29,1158.74 1647.15,1154.3 1656.04,1154.3C1665.15,1154.3 1673.19,1158.97 1677.88,1166.05" style="fill:none;stroke:black;stroke-width:8.75px;"/>
        </g>
        <g transform="matrix(1,0,0,1,-1075.75,-97.7957)">
            <path d="M1613.23,1143.43C1623.69,1130.67 1639.57,1122.51 1657.34,1122.51C1675.14,1122.51 1691.05,1130.7 1701.5,1143.51" style="fill:none;stroke:black;stroke-width:8.75px;"/>
        </g>
        <g transform="matrix(1,0,0,1,-1075.75,-97.7957)">
            <path d="M1603.25,1132.65C1616.69,1117.45 1636.34,1107.87 1658.22,1107.87C1680.03,1107.87 1699.64,1117.41 1713.09,1132.54" style="fill:none;stroke:black;stroke-width:8.75px;"/>
        </g>
        <g transform="matrix(0.4885,0,0,0.4885,-209.297,514.154)">
            <circle cx="1617.58" cy="1166.12" r="17.9" style="stroke:black;stroke-width:17.91px;"/>
        </g>
        <g transform="matrix(1,0,0,1,-1075.75,-97.7957)">
            <path d="M1603.13,1132.78C1616.59,1117.51 1636.28,1107.87 1658.22,1107.87C1679.98,1107.87 1699.54,1117.36 1712.98,1132.43" style="fill:none;stroke:black;stroke-width:8.75px;"/>
        </g>
    </g>
</svg>
